<svg xmlns="http://www.w3.org/2000/svg" version="1.1" xmlns:xlink="http://www.w3.org/1999/xlink" viewBox="0 0 200 200"><rect width="200" height="200" fill="url('#gradient')"></rect><defs><linearGradient id="gradient" gradientTransform="rotate(45 0.5 0.5)"><stop offset="0%" stop-color="#000000"></stop><stop offset="100%" stop-color="#000000"></stop></linearGradient></defs><g><g fill="#79996a" transform="matrix(7.492682926829269,0,0,7.492682926829269,7.3546981677776415,144.2474878822885)" stroke="#00e927" stroke-width="0"><path d="M6.74-4.46L6.74-14.22L10.16-14.22L10.16-4.46Q10.16-3.11 9.53-2.04Q8.90-0.98 7.77-0.39Q6.64 0.20 5.25 0.20L5.25 0.20Q2.93 0.20 1.64-0.98Q0.35-2.15 0.35-4.30L0.35-4.30L3.79-4.30Q3.79-3.32 4.13-2.88Q4.46-2.44 5.25-2.44L5.25-2.44Q5.97-2.44 6.35-2.97Q6.74-3.51 6.74-4.46L6.74-4.46ZM24.38-7.47L24.38-6.82Q24.38-4.84 23.72-3.37Q23.07-1.90 21.91-1.02L21.91-1.02L24.21 0.80L22.09 2.60L19.03 0.14Q18.60 0.20 18.17 0.20L18.17 0.20Q16.36 0.20 14.95-0.64Q13.54-1.48 12.76-3.05Q11.97-4.61 11.94-6.64L11.94-6.64L11.94-7.39Q11.94-9.49 12.71-11.08Q13.48-12.68 14.90-13.54Q16.32-14.41 18.15-14.41L18.15-14.41Q19.96-14.41 21.38-13.55Q22.79-12.70 23.58-11.11Q24.37-9.52 24.38-7.47L24.38-7.47ZM20.89-6.76L20.89-7.41Q20.89-9.53 20.18-10.63Q19.47-11.73 18.15-11.73L18.15-11.73Q16.80-11.73 16.11-10.64Q15.43-9.56 15.42-7.47L15.42-7.47L15.42-6.82Q15.42-4.72 16.11-3.60Q16.81-2.48 18.17-2.48L18.17-2.48Q19.48-2.48 20.18-3.58Q20.88-4.69 20.89-6.76L20.89-6.76Z"></path></g></g></svg>